<?xml version="1.0" encoding="UTF-8"?> <svg xmlns="http://www.w3.org/2000/svg" width="186" height="44" viewBox="0 0 186 44" fill="none"><g clip-path="url(#clip0_802_1826)"><path d="M0 21.9986C0 34.1497 9.85034 43.9973 21.9986 43.9973C34.1469 43.9973 43.9973 34.1469 43.9973 21.9986C43.9973 9.85034 34.1497 0 21.9986 0C9.84761 0 0 9.85034 0 21.9986Z" fill="#F4C709"></path><path d="M44 21.9988C44 21.8457 43.9918 21.6927 43.9891 21.5424L35.1634 21.4277C35.1087 19.9959 34.8901 18.6925 34.5377 17.5121L42.7048 14.5502C41.9152 12.3588 40.7867 10.3314 39.385 8.52524L32.8162 13.9764C30.5948 10.9188 26.9798 9.35863 22.7036 9.35863C20.1187 9.35863 16.0939 10.7494 14.6539 13.2851V1.25977C12.4489 2.04123 10.4078 3.16152 8.5907 4.56325V11.8233L4.61504 8.52251C3.21331 10.3286 2.08483 12.3561 1.29516 14.5475L8.5907 17.1924V21.4304L0.0109296 21.5424C0.00819723 21.6955 0 21.8457 0 21.9988C0 24.3158 0.360678 26.5455 1.02192 28.6412L8.5907 25.2011V34.4504H14.255L14.6539 31.0731C16.542 34.005 19.5723 34.9996 22.5533 34.9996C28.8761 34.9996 33.819 31.3272 34.9366 24.988L42.9753 28.6412C43.6393 26.5455 43.9973 24.3158 43.9973 22.0015L44 21.9988ZM22.1571 29.3817C18.3317 29.3817 15.0528 26.6001 15.0528 22.1764C15.0528 17.7526 18.3317 15.0202 22.1571 15.0202C25.9825 15.0202 29.1138 17.7526 29.1138 22.1764C29.1138 26.4499 26.0344 29.3817 22.1571 29.3817Z" fill="white"></path></g><path d="M60.7789 11.1172V18.606C61.5832 17.2084 63.8248 16.4412 65.2659 16.4412C69.2544 16.4412 72.2203 18.8546 72.2203 23.5158C72.2203 28.177 69.1998 30.5904 65.1822 30.5904C63.5192 30.5904 61.8306 30.0429 60.7753 28.4255L60.5533 30.2914H57.3945V11.1172H60.7753H60.7789ZM61.0009 23.5122C61.0009 25.9544 62.8277 27.4889 64.9639 27.4889C67.1 27.4889 68.8432 25.8716 68.8432 23.5122C68.8432 21.1528 67.1255 19.5642 64.9639 19.5642C62.8023 19.5642 61.0009 21.1564 61.0009 23.5122Z" fill="#403E3F"></path><path d="M79.2273 16.7687L79.4784 18.3321C80.5301 16.6607 81.9457 16.4121 83.3286 16.4121C84.7114 16.4121 86.0979 16.9596 86.8476 17.7017L85.3228 20.6086C84.6314 20.0323 83.9945 19.7297 82.8846 19.7297C81.1124 19.7297 79.4784 20.6626 79.4784 23.1589V30.2912H76.0977V16.7687H79.2273Z" fill="#403E3F"></path><path d="M93.1916 12.9533C93.1916 15.5576 89.2031 15.5576 89.2031 12.9533C89.2031 10.3489 93.1916 10.3489 93.1916 12.9533ZM89.5052 30.2868H92.8859V16.7103H89.5052V30.2868Z" fill="#403E3F"></path><path d="M108.037 15.3965L110.53 17.2624L109.005 19.1823C110.057 20.3602 110.446 21.7038 110.446 23.1843C110.446 24.8557 109.81 27.2151 107.564 28.2309C109.835 29.3548 110.392 30.9722 110.392 32.7012C110.392 36.4294 107.51 38.7348 103.55 38.7348C99.5909 38.7348 96.625 36.3502 96.625 32.7012H99.9766C99.9766 34.4554 101.611 35.6081 103.55 35.6081C105.49 35.6081 107.015 34.5671 107.015 32.7012C107.015 30.8353 105.242 29.9852 103.55 29.9852C99.2852 29.9852 96.625 27.406 96.625 23.1843C96.625 18.9626 99.7292 16.3294 103.55 16.3294C104.631 16.3294 105.737 16.4663 106.68 17.0967L108.037 15.3965ZM99.973 23.1843C99.973 25.5437 101.581 26.9414 103.547 26.9414C105.512 26.9414 107.091 25.5149 107.091 23.1843C107.091 20.8537 105.483 19.3733 103.547 19.3733C101.611 19.3733 99.973 20.8249 99.973 23.1843Z" fill="#403E3F"></path><path d="M117.658 11.0918V18.6059C118.877 17.0425 120.373 16.5779 121.923 16.5779C125.802 16.5779 127.52 19.1822 127.52 23.159V30.2912H124.139V23.1878C124.139 20.7203 122.836 19.6793 121.035 19.6793C119.041 19.6793 117.654 21.3507 117.654 23.3823V30.2948H114.273V11.0918H117.654H117.658Z" fill="#403E3F"></path><path d="M136.526 12.9531V16.793H140.292V19.6711H136.496V25.5138C136.496 26.8034 137.217 27.4338 138.269 27.4338C138.796 27.4338 139.404 27.2681 139.903 27.0231L140.845 29.876C139.873 30.2614 139.073 30.4235 138.047 30.4524C135.081 30.564 133.141 28.889 133.141 25.5174V19.6747H130.594V16.7966H133.141V13.3097L136.522 12.9531H136.526Z" fill="#403E3F"></path><path d="M147.076 24.7216C147.298 26.393 148.764 27.5997 151.148 27.5997C152.396 27.5997 154.03 27.135 154.805 26.339L156.967 28.4498C155.526 29.9303 153.171 30.6435 151.093 30.6435C146.384 30.6435 143.586 27.7654 143.586 23.432C143.586 19.0987 146.414 16.3574 150.846 16.3574C155.278 16.3574 158.27 19.1563 157.746 24.7216H147.079H147.076ZM154.5 21.9516C154.278 20.1973 152.895 19.3184 150.955 19.3184C149.128 19.3184 147.629 20.1937 147.13 21.9516H154.5Z" fill="#403E3F"></path><path d="M170.649 20.3596C169.678 19.4554 168.571 19.1529 167.269 19.1529C165.66 19.1529 164.776 19.6464 164.776 20.4965C164.776 21.3466 165.58 21.8689 167.323 21.9769C169.9 22.1426 173.168 22.719 173.168 26.3103C173.168 28.6949 171.199 30.7518 167.294 30.7518C165.132 30.7518 162.971 30.3952 160.977 28.3383L162.64 25.9537C163.608 27.0236 165.824 27.8196 167.349 27.8448C168.622 27.8737 169.816 27.2145 169.816 26.2275C169.816 25.2945 169.041 24.9127 167.101 24.801C164.525 24.6101 161.45 23.6772 161.45 20.6045C161.45 17.5319 164.718 16.3828 167.214 16.3828C169.347 16.3828 170.955 16.7935 172.534 18.1659L170.649 20.3596Z" fill="#403E3F"></path><path d="M181.479 12.9531V16.793H185.245V19.6711H181.45V25.5138C181.45 26.8034 182.17 27.4338 183.222 27.4338C183.749 27.4338 184.357 27.2681 184.856 27.0231L185.798 29.876C184.827 30.2614 184.026 30.4235 183 30.4524C180.034 30.564 178.094 28.889 178.094 25.5174V19.6747H175.547V16.7966H178.094V13.3097L181.475 12.9531H181.479Z" fill="#403E3F"></path><defs><clipPath id="clip0_802_1826"><rect width="44" height="44" fill="white"></rect></clipPath></defs></svg> 