<svg id="Group_399" data-name="Group 399" xmlns="http://www.w3.org/2000/svg" xmlns:xlink="http://www.w3.org/1999/xlink" width="269.855" height="59.089" viewBox="0 0 269.855 59.089">
  <defs>
    <clipPath id="clip-path">
      <rect id="Rectangle_915" data-name="Rectangle 915" width="269.855" height="59.089" fill="#4d5be2"/>
    </clipPath>
  </defs>
  <g id="Group_273" data-name="Group 273" clip-path="url(#clip-path)">
    <path id="Path_306" data-name="Path 306" d="M543.575,68.3a17.372,17.372,0,0,1-1.231,1.433,11.982,11.982,0,0,1-16.735.023,11.92,11.92,0,0,1-.023-16.785,11.982,11.982,0,0,1,16.735-.023,10.474,10.474,0,0,1,1.187,1.381l-3.4,2.521A7.61,7.61,0,1,0,534,69a7.544,7.544,0,0,0,6.117-3.217Z" transform="translate(-445.127 -42.245)" fill="#4d5be2"/>
    <path id="Path_307" data-name="Path 307" d="M706.794,61.117a11.881,11.881,0,0,1-11.832,11.864,11.823,11.823,0,1,1-.032-23.646,11.8,11.8,0,0,1,11.864,11.781m-4.244.006a7.6,7.6,0,1,0-7.594,7.613,7.565,7.565,0,0,0,7.594-7.613" transform="translate(-582.343 -42.059)" fill="#4d5be2"/>
    <path id="Path_308" data-name="Path 308" d="M894.562,60.317l.016,12.142-4.246.006-.016-12.142a6.665,6.665,0,1,0-13.328.018L877,72.483l-4.246.006-.031-22.608,4.246-.006,0,2.173a11.236,11.236,0,0,1,6.66-2.626,10.859,10.859,0,0,1,7.755,3.149,10.982,10.982,0,0,1,3.17,7.746" transform="translate(-744.002 -42.132)" fill="#4d5be2"/>
    <path id="Path_309" data-name="Path 309" d="M1063.468,66.159a6.042,6.042,0,0,1-1.082,3.555,7.206,7.206,0,0,1-3.008,2.471,9.906,9.906,0,0,1-4.047.844,12.5,12.5,0,0,1-2.32-.242,14.919,14.919,0,0,1-6.767-3.249l2.661-2.918a9.651,9.651,0,0,0,6.224,2.658,6.532,6.532,0,0,0,2.616-.546,2.822,2.822,0,0,0,1.773-2.568c0-1.53-1.336-2.467-4.4-3.007a26.347,26.347,0,0,1-5.283-1.523,5.838,5.838,0,0,1-3.166-5.277,6.214,6.214,0,0,1,1.082-3.457,6.823,6.823,0,0,1,2.811-2.177,9.2,9.2,0,0,1,3.9-.844c.542,0,1.136.048,1.678.1a13,13,0,0,1,6.076,2.707l-2.463,2.867a8.36,8.36,0,0,0-5.087-1.969,5.459,5.459,0,0,0-2.419.5,2.71,2.71,0,0,0-1.628,2.274c0,1.481,1.19,2.27,4.2,2.907a31.067,31.067,0,0,1,5.236,1.523,6.185,6.185,0,0,1,2.371,1.922,5.939,5.939,0,0,1,1.042,3.455" transform="translate(-891.925 -42.523)" fill="#4d5be2"/>
    <path id="Path_310" data-name="Path 310" d="M1204.225,63.485l-17.426.024v.1c.5,3.75,3.315,6.561,6.574,6.606a8.548,8.548,0,0,0,5.525-2.376l3.557,2.117a13.361,13.361,0,0,1-3.006,2.522,12.909,12.909,0,0,1-5.971,1.687,10.119,10.119,0,0,1-7.656-3.447,11.649,11.649,0,0,1-3.07-7.1,7.294,7.294,0,0,1-.051-1.037,12.309,12.309,0,0,1,.292-2.667,11.909,11.909,0,0,1,2.807-5.483,10.329,10.329,0,0,1,7.647-3.416,10.438,10.438,0,0,1,7.706,3.4,11.457,11.457,0,0,1,2.82,5.475,13.644,13.644,0,0,1,.253,3.6m-4.448-3.548-.049-.1a6.844,6.844,0,0,0-6.276-4.879,6.941,6.941,0,0,0-6.263,4.9l-.049.1Z" transform="translate(-1008.254 -43.486)" fill="#4d5be2"/>
    <path id="Path_311" data-name="Path 311" d="M1378.091,59.663l.016,12.142-4.244.006-.017-12.142a6.665,6.665,0,1,0-13.328.018l.016,12.142-4.248.006-.031-22.608,4.247-.006,0,2.173a11.237,11.237,0,0,1,6.659-2.626,10.857,10.857,0,0,1,7.755,3.149,10.983,10.983,0,0,1,3.17,7.746" transform="translate(-1156.212 -41.575)" fill="#4d5be2"/>
    <path id="Path_312" data-name="Path 312" d="M1547,65.505a6.058,6.058,0,0,1-1.082,3.555,7.219,7.219,0,0,1-3.008,2.471,9.9,9.9,0,0,1-4.046.844,12.517,12.517,0,0,1-2.321-.242,14.927,14.927,0,0,1-6.767-3.249l2.662-2.918a9.637,9.637,0,0,0,6.224,2.658,6.526,6.526,0,0,0,2.614-.546,2.82,2.82,0,0,0,1.775-2.568c0-1.53-1.336-2.467-4.4-3.007a26.3,26.3,0,0,1-5.285-1.523A5.838,5.838,0,0,1,1530.2,55.7a6.225,6.225,0,0,1,1.082-3.457,6.835,6.835,0,0,1,2.809-2.177,9.226,9.226,0,0,1,3.9-.844c.544,0,1.136.048,1.679.1a13.006,13.006,0,0,1,6.076,2.707l-2.465,2.867a8.354,8.354,0,0,0-5.087-1.969,5.462,5.462,0,0,0-2.417.5,2.708,2.708,0,0,0-1.626,2.274c0,1.481,1.187,2.27,4.2,2.907a31.094,31.094,0,0,1,5.233,1.523,6.191,6.191,0,0,1,2.373,1.922A5.953,5.953,0,0,1,1547,65.505" transform="translate(-1304.133 -41.965)" fill="#4d5be2"/>
    <path id="Path_313" data-name="Path 313" d="M1692.6,59.783a11.881,11.881,0,0,1-11.833,11.864A11.823,11.823,0,1,1,1680.732,48,11.8,11.8,0,0,1,1692.6,59.783m-4.244.006a7.6,7.6,0,1,0-7.594,7.613,7.565,7.565,0,0,0,7.594-7.613" transform="translate(-1422.742 -40.922)" fill="#4d5be2"/>
    <path id="Path_314" data-name="Path 314" d="M530.228,269.83l-5.518.007-1.493,3.928-1.821,0,5.177-13.51,1.764,0,5.234,13.5-1.839,0Zm-2.759-7.127-2.1,5.465,4.191-.006Z" transform="translate(-444.491 -221.868)" fill="#4d5be2"/>
    <path id="Path_315" data-name="Path 315" d="M646.866,260.115l4.362-.006a6.754,6.754,0,1,1,.018,13.5l-4.362.006Zm9.624,6.738a5.2,5.2,0,0,0-5.26-5.094l-2.674,0,.014,10.2,2.674,0a5.2,5.2,0,0,0,5.246-5.108" transform="translate(-551.455 -221.743)" fill="#4d5be2"/>
    <path id="Path_316" data-name="Path 316" d="M759.257,259.9l4.263,11.051,4.252-11.062,1.821,0-5.178,13.51-1.764,0-5.233-13.5Z" transform="translate(-645.7 -221.554)" fill="#4d5be2"/>
    <path id="Path_317" data-name="Path 317" d="M887.688,264.013a7.064,7.064,0,1,1-7.083-7.064,7.066,7.066,0,0,1,7.083,7.064m-1.725,0a5.348,5.348,0,1,0-5.341,5.374,5.39,5.39,0,0,0,5.341-5.374" transform="translate(-744.711 -219.049)" fill="#4d5be2"/>
    <path id="Path_318" data-name="Path 318" d="M1021.592,267.075l1.329.984a6.988,6.988,0,0,1-5.628,2.833,7.064,7.064,0,1,1,5.636-11.292l-1.345.988a5.3,5.3,0,0,0-4.308-2.156,5.4,5.4,0,1,0,4.317,8.642" transform="translate(-861.205 -218.892)" fill="#4d5be2"/>
    <path id="Path_319" data-name="Path 319" d="M1144.827,269l-5.519.007-1.492,3.928-1.821,0,5.177-13.51,1.764,0,5.234,13.5-1.839,0Zm-2.759-7.127-2.1,5.465,4.191-.006Z" transform="translate(-968.438 -221.159)" fill="#4d5be2"/>
    <path id="Path_320" data-name="Path 320" d="M1251.92,260.93l-3.565,0,0-1.669,8.837-.012,0,1.669-3.565,0,.016,11.834-1.707,0Z" transform="translate(-1064.223 -221.014)" fill="#4d5be2"/>
    <path id="Path_321" data-name="Path 321" d="M1351.972,259.128l8.534-.012,0,1.631-6.827.009,0,3.167,5.954-.008,0,1.688-5.954.008.007,5.348,6.656-.009,0,1.669-8.363.011Z" transform="translate(-1152.559 -220.897)" fill="#4d5be2"/>
    <path id="Path_322" data-name="Path 322" d="M1460.252,261.789l.014,10.677-1.707,0-.018-13.5,1.858,0,7.221,10.667-.014-10.677,1.707,0,.018,13.5-1.84,0Z" transform="translate(-1243.409 -220.756)" fill="#4d5be2"/>
    <path id="Path_323" data-name="Path 323" d="M47.662,47.614l-30.72.042a5.467,5.467,0,0,1-5.474-5.46l-.034-25.253a5.467,5.467,0,0,1,5.46-5.474l25.253-.034a5.467,5.467,0,0,1,5.474,5.46l.007,5.008,11.427-.015-.013-9.958A11.944,11.944,0,0,0,47.081,0L11.928.048A11.944,11.944,0,0,0,0,12.009L.048,47.162A11.944,11.944,0,0,0,12.008,59.09l35.153-.047a11.944,11.944,0,0,0,11.928-11.96l-.013-9.958-11.427.015Z" transform="translate(0 -0.001)" fill="#4d5be2"/>
    <path id="Path_324" data-name="Path 324" d="M155.055,142.159l-8.662.012a4.24,4.24,0,0,0-4.234,4.245l.012,8.662a4.24,4.24,0,0,0,4.245,4.234l8.662-.012a4.24,4.24,0,0,0,4.234-4.245l-.012-8.662a4.24,4.24,0,0,0-4.245-4.234" transform="translate(-121.191 -121.191)" fill="#4d5be2"/>
  </g>
</svg>
