<?xml version="1.0" encoding="UTF-8" standalone="no"?>
<svg
   xmlns:dc="http://purl.org/dc/elements/1.1/"
   xmlns:cc="http://creativecommons.org/ns#"
   xmlns:rdf="http://www.w3.org/1999/02/22-rdf-syntax-ns#"
   xmlns:svg="http://www.w3.org/2000/svg"
   xmlns="http://www.w3.org/2000/svg"
   xmlns:sodipodi="http://sodipodi.sourceforge.net/DTD/sodipodi-0.dtd"
   xmlns:inkscape="http://www.inkscape.org/namespaces/inkscape"
   width="1250"
   height="150"
   viewBox="0 0 330.72917 39.687501"
   version="1.1"
   id="svg8"
   inkscape:version="1.0rc1 (09960d6f05, 2020-04-09)"
   sodipodi:docname="SoftwareOplossing.be_URL_safe_color.svg">
  <defs
     id="defs2" />
  <sodipodi:namedview
     id="base"
     pagecolor="#ffffff"
     bordercolor="#666666"
     borderopacity="1.0"
     inkscape:pageopacity="0.0"
     inkscape:pageshadow="2"
     inkscape:zoom="0.98994949"
     inkscape:cx="611.90864"
     inkscape:cy="138.99603"
     inkscape:document-units="mm"
     inkscape:current-layer="text880"
     inkscape:document-rotation="0"
     showgrid="false"
     units="px"
     width="2000px"
     inkscape:window-width="2560"
     inkscape:window-height="1377"
     inkscape:window-x="1072"
     inkscape:window-y="1072"
     inkscape:window-maximized="1" />
  <metadata
     id="metadata5">
    <rdf:RDF>
      <cc:Work
         rdf:about="">
        <dc:format>image/svg+xml</dc:format>
        <dc:type
           rdf:resource="http://purl.org/dc/dcmitype/StillImage" />
        <dc:title></dc:title>
      </cc:Work>
    </rdf:RDF>
  </metadata>
  <g
     inkscape:label="Layer 1"
     inkscape:groupmode="layer"
     id="layer1">
    <g
       aria-label="SoftwareOplossing.be"
       id="text835"
       style="font-style:normal;font-weight:normal;font-size:33.8667px;line-height:1.25;font-family:sans-serif;fill:#000000;fill-opacity:1;stroke:none;stroke-width:0.264583"
       transform="translate(-27.203399,-26.422022)">
      <g
         style="font-style:normal;font-weight:normal;font-size:33.8667px;line-height:1.25;font-family:sans-serif;fill:#000000;fill-opacity:1;stroke:none;stroke-width:0.0700042"
         id="text880"
         aria-label="SoftwareOplossing.be">
        <path
           id="path883"
           style="fill:#42be84;fill-opacity:1"
           d="m 31.203399,53.451377 q 0,-0.778934 0.778935,-1.896535 0.778934,-1.117601 1.320801,-1.117601 0.2032,0 0.880534,0.372534 2.099735,1.185334 4.097871,1.185334 3.183469,0 3.183469,-2.472269 0,-1.083734 -1.016001,-1.828802 -1.016001,-0.745067 -2.472269,-1.286934 -1.422401,-0.575734 -2.844802,-1.286935 -1.422402,-0.745067 -2.438403,-2.269069 -1.016001,-1.524001 -1.016001,-3.79307 0,-2.302935 1.219201,-3.928537 2.201336,-2.946403 6.807207,-2.946403 2.573869,0 4.334937,0.745068 1.761069,0.745067 1.761069,1.625601 0,0.745067 -0.643467,1.862669 -0.643468,1.083734 -1.219202,1.083734 -0.135466,0 -0.6096,-0.237067 -1.354668,-0.609601 -3.149603,-0.609601 -1.761069,0 -2.472269,0.609601 -0.677334,0.609601 -0.677334,1.524001 0,0.914401 1.016001,1.625602 1.016001,0.711201 2.438402,1.253068 1.422401,0.541867 2.844803,1.286935 1.456268,0.7112 2.472269,2.235202 1.016001,1.524001 1.016001,3.657603 0,2.099736 -0.677334,3.623737 -0.643467,1.490135 -1.794935,2.336802 -2.235202,1.625602 -5.486406,1.625602 -3.251203,0 -5.452538,-0.982134 -2.201336,-0.982135 -2.201336,-1.998136 z" />
        <path
           id="path885"
           style="fill:#42be84;fill-opacity:1"
           d="m 50.913818,54.094845 q -2.099735,-2.370669 -2.099735,-6.807207 0,-4.436538 2.099735,-6.77334 2.099736,-2.336802 6.129873,-2.336802 4.030137,0 6.096006,2.336802 2.099735,2.336802 2.099735,6.77334 0,4.436538 -2.099735,6.807207 -2.065869,2.336802 -6.096006,2.336802 -4.030137,0 -6.129873,-2.336802 z m 2.98027,-6.77334 q 0,5.147738 3.115736,5.147738 3.149603,0 3.149603,-5.147738 0,-5.181605 -3.149603,-5.181605 -3.115736,0 -3.115736,5.181605 z" />
        <path
           id="path887"
           style="fill:#42be84;fill-opacity:1"
           d="m 76.596946,34.519892 -1.049867,-0.135466 q -1.219202,0 -1.219202,1.456268 v 2.607736 h 1.693335 q 1.016001,0 1.016001,1.693334 v 0.575734 q 0,1.693335 -1.016001,1.693335 h -1.693335 v 12.733879 q 0,1.083735 -2.032002,1.083735 h -0.948267 q -2.032002,0 -2.032002,-1.083735 V 42.410833 h -0.609601 q -1.016001,0 -1.016001,-1.693335 v -0.575734 q 0,-1.693334 1.016001,-1.693334 h 0.609601 v -2.540003 q 0,-5.486405 4.944538,-5.486405 3.38667,0 3.38667,1.659468 0,0.440267 -0.3048,1.456268 -0.304801,0.982134 -0.745068,0.982134 z" />
        <path
           id="path889"
           style="fill:#42be84;fill-opacity:1"
           d="m 86.459566,52.469243 0.914401,-0.135467 q 0.440267,0 0.745067,1.016001 0.304801,0.982134 0.304801,1.422402 0,1.659468 -3.251204,1.659468 -4.944538,0 -4.944538,-5.486405 v -8.534409 h -0.541867 q -1.016001,0 -1.016001,-1.693335 v -0.575734 q 0,-1.693334 1.016001,-1.693334 h 0.541867 l 0.440267,-3.217337 q 0.169334,-1.083734 1.828802,-1.083734 h 1.049868 q 1.693335,0 1.693335,1.083734 v 3.217337 h 1.659468 q 1.016001,0 1.016001,1.693334 v 0.575734 q 0,1.693335 -1.016001,1.693335 h -1.659468 v 8.602142 q 0,1.456268 1.219201,1.456268 z" />
        <path
           id="path891"
           style="fill:#42be84;fill-opacity:1"
           d="m 89.805489,39.26123 q 0,-0.880534 2.099735,-0.880534 h 0.812801 q 1.659468,0 1.862669,0.711201 l 2.675469,10.430943 2.573869,-10.430943 q 0.135467,-0.711201 1.862668,-0.711201 h 0.8128 q 1.7272,0 1.86267,0.711201 l 2.50614,10.430943 2.7432,-10.430943 q 0.2032,-0.711201 1.86267,-0.711201 h 0.13546 q 2.09974,0 2.09974,0.880534 0,0.1016 -0.0677,0.508001 l -3.99628,15.748015 q -0.2032,0.711201 -1.86266,0.711201 h -1.65947 q -1.65947,0 -1.86267,-0.711201 l -2.4384,-9.516543 -2.302938,9.516543 q -0.169334,0.711201 -1.862669,0.711201 h -1.659468 q -1.659468,0 -1.862668,-0.711201 L 89.873223,39.769231 q -0.06773,-0.2032 -0.06773,-0.508001 z" />
        <path
           id="path893"
           style="fill:#42be84;fill-opacity:1"
           d="m 115.88602,51.487109 q 0,-0.948268 0.16933,-1.727202 0.16934,-0.778934 0.77894,-1.659468 0.6096,-0.914401 1.6256,-1.490135 2.40454,-1.422401 7.14587,-1.422401 v -1.117601 q 0,-1.930402 -2.6416,-1.930402 -1.86267,0 -3.62374,0.812801 -0.6096,0.270933 -0.7112,0.270933 -0.508,0 -1.15146,-1.049868 -0.60961,-1.049867 -0.60961,-1.659468 0,-0.914401 1.86267,-1.625601 1.89654,-0.711201 4.60587,-0.711201 7.28134,0 7.28134,5.655739 v 6.366939 q 0,2.099735 0.2032,3.522137 l 0.20321,1.388535 q 0,0.541867 -1.38854,0.8128 -1.35467,0.270934 -2.032,0.270934 -0.67734,0 -0.9144,-0.135467 -0.2032,-0.135467 -0.33867,-0.440267 -0.13547,-0.338667 -0.2032,-0.508 -0.0677,-0.203201 -0.16933,-0.677334 -0.0677,-0.474134 -0.1016,-0.575734 -0.6096,1.083734 -2.09974,1.828801 -1.49013,0.745068 -2.87867,0.745068 -2.60773,0 -3.82693,-1.354668 -1.18534,-1.354668 -1.18534,-3.58987 z m 4.97841,-0.508001 q 0,0.677334 0.44026,1.083735 0.44027,0.4064 1.3208,0.4064 0.88054,0 1.72721,-0.609601 0.84666,-0.6096 1.25306,-1.524001 v -1.862669 q -4.74133,0 -4.74133,2.506136 z" />
        <path
           id="path895"
           style="fill:#42be84;fill-opacity:1"
           d="M 135.01806,55.144712 V 44.408969 q 0,-2.540003 -0.2032,-3.556004 -0.2032,-1.016001 -0.2032,-1.219201 0,-0.541867 1.35467,-0.812801 1.38853,-0.270933 2.06587,-0.270933 0.67733,0 0.88053,0.135466 0.23707,0.135467 0.37253,0.440267 0.13547,0.270934 0.2032,0.474134 0.0677,0.169334 0.13547,0.609601 0.1016,0.440267 0.13547,0.541867 1.4224,-2.573869 3.69147,-2.573869 1.08373,0 1.49013,0.575734 0.44027,0.541867 0.44027,1.253068 0,0.7112 -0.3048,1.794935 -0.3048,1.049867 -0.74507,1.049867 -0.2032,0 -0.7112,-0.135466 -0.508,-0.135467 -0.88053,-0.135467 -1.69334,0 -2.70934,1.693335 v 10.87121 q 0,1.083735 -2.032,1.083735 h -0.94827 q -2.032,0 -2.032,-1.083735 z" />
        <path
           id="path897"
           style="fill:#42be84;fill-opacity:1"
           d="m 155.54922,56.431647 q -4.47041,0 -6.67174,-2.370669 -2.16747,-2.404536 -2.16747,-6.908807 0,-4.504271 2.16747,-6.739473 2.20133,-2.235202 5.9944,-2.235202 3.82694,0 5.58801,2.438402 1.79494,2.438403 1.79494,6.299206 0,0.406401 -0.71121,1.219201 -0.67733,0.778935 -1.016,0.778935 h -8.636 q 0.16933,1.930401 1.15146,2.743202 0.98214,0.812801 2.50614,0.812801 1.524,0 2.91254,-0.508001 1.38853,-0.541867 1.4224,-0.541867 0.508,0 1.1176,1.016001 0.64346,0.982135 0.64346,1.557868 0,1.117602 -2.1336,1.794936 -2.09973,0.643467 -3.9624,0.643467 z m 1.8288,-10.871211 q 0,-1.557868 -0.6096,-2.472269 -0.6096,-0.948267 -1.8288,-0.948267 -2.50614,0 -3.048,3.420536 z" />
        <path
           id="path899"
           style="fill:#378068;fill-opacity:1"
           d="m 167.87881,53.31591 q -2.81094,-3.149603 -2.81094,-9.008542 0,-5.858938 2.81094,-8.974675 2.81094,-3.149603 8.06027,-3.149603 5.24934,0 8.02641,3.149603 2.81094,3.115737 2.81094,8.974675 0,5.858939 -2.81094,9.008542 -2.77707,3.115737 -8.02641,3.115737 -5.24933,0 -8.06027,-3.115737 z m 3.92854,-3.285069 q 1.4224,1.964268 4.13173,1.964268 2.70934,0 4.09788,-1.964268 1.38853,-1.964269 1.38853,-5.723473 0,-3.759203 -1.38853,-5.689605 -1.38854,-1.964269 -4.09788,-1.964269 -2.70933,0 -4.13173,1.964269 -1.38854,1.930402 -1.38854,5.689605 0,3.759204 1.38854,5.723473 z" />
        <path
           id="path901"
           style="fill:#378068;fill-opacity:1"
           d="m 190.65311,62.053519 v -17.64455 q 0,-2.540003 -0.2032,-3.556004 -0.2032,-1.016001 -0.2032,-1.219201 0,-0.541867 1.35467,-0.812801 1.38854,-0.270933 2.06587,-0.270933 0.67733,0 0.88053,0.135466 0.23707,0.135467 0.37254,0.440267 0.13546,0.270934 0.2032,0.474134 0.0677,0.2032 0.13546,0.609601 0.1016,0.4064 0.13547,0.508 0.6096,-1.117601 1.79494,-1.828801 1.2192,-0.711201 2.7432,-0.711201 2.81093,0 4.572,2.438402 1.76107,2.404536 1.76107,6.67174 0,4.233337 -1.89653,6.705606 -1.86267,2.438403 -5.24934,2.438403 -1.99814,0 -3.45441,-1.049868 v 6.67174 q 0,1.083734 -2.032,1.083734 h -0.94827 q -2.032,0 -2.032,-1.083734 z m 7.38294,-9.584276 q 3.14961,0 3.14961,-5.080005 0,-5.113871 -2.74321,-5.113871 -1.6256,0 -2.77707,1.998135 v 7.552274 q 1.15147,0.643467 2.37067,0.643467 z" />
        <path
           id="path903"
           style="fill:#378068;fill-opacity:1"
           d="m 216.02827,52.469243 0.9144,-0.135467 q 0.44027,0 0.74507,1.016001 0.3048,0.982134 0.3048,1.422402 0,1.659468 -3.2512,1.659468 -4.94454,0 -4.94454,-5.486405 V 31.708956 q 0,-1.083734 2.032,-1.083734 h 0.94827 q 2.032,0 2.032,1.083734 v 19.304019 q 0,1.456268 1.2192,1.456268 z" />
        <path
           id="path905"
           style="fill:#378068;fill-opacity:1"
           d="m 221.2395,54.094845 q -2.09973,-2.370669 -2.09973,-6.807207 0,-4.436538 2.09973,-6.77334 2.09974,-2.336802 6.12987,-2.336802 4.03014,0 6.09601,2.336802 2.09974,2.336802 2.09974,6.77334 0,4.436538 -2.09974,6.807207 -2.06587,2.336802 -6.09601,2.336802 -4.03013,0 -6.12987,-2.336802 z m 2.98027,-6.77334 q 0,5.147738 3.11574,5.147738 3.1496,0 3.1496,-5.147738 0,-5.181605 -3.1496,-5.181605 -3.11574,0 -3.11574,5.181605 z" />
        <path
           id="path907"
           style="fill:#378068;fill-opacity:1"
           d="m 238.01569,54.027111 q 0,-0.541867 0.64347,-1.524001 0.64347,-0.982135 1.15147,-0.982135 0.0677,0 1.2192,0.474134 1.15147,0.474134 2.09973,0.474134 2.06587,0 2.06587,-1.524001 0,-0.812801 -0.7112,-1.286935 -0.67733,-0.508001 -1.69333,-0.846668 -0.98214,-0.338667 -1.99814,-0.8128 -0.98213,-0.474134 -1.69333,-1.557868 -0.67734,-1.083735 -0.67734,-2.77707 0,-2.540002 1.65947,-3.99627 1.69334,-1.490135 4.572,-1.490135 1.35467,0 2.57387,0.270934 2.43841,0.541867 2.43841,1.862668 0,0.440267 -0.508,1.490135 -0.508,1.016001 -0.94827,1.016001 -0.0339,0 -1.016,-0.338667 -0.94827,-0.372534 -1.86267,-0.372534 -1.8288,0 -1.8288,1.219201 0,0.677334 0.67733,1.117601 0.7112,0.406401 1.69334,0.778934 1.016,0.338667 1.99813,0.880535 1.016,0.508 1.69334,1.659468 0.7112,1.117601 0.7112,2.777069 0,2.675469 -1.76107,4.301071 -1.7272,1.591735 -4.36881,1.591735 -2.60773,0 -4.3688,-0.609601 -1.76107,-0.643467 -1.76107,-1.794935 z" />
        <path
           id="path909"
           style="fill:#378068;fill-opacity:1"
           d="m 251.97248,54.027111 q 0,-0.541867 0.64347,-1.524001 0.64346,-0.982135 1.15146,-0.982135 0.0677,0 1.21921,0.474134 1.15146,0.474134 2.09973,0.474134 2.06587,0 2.06587,-1.524001 0,-0.812801 -0.7112,-1.286935 -0.67734,-0.508001 -1.69334,-0.846668 -0.98213,-0.338667 -1.99813,-0.8128 -0.98214,-0.474134 -1.69334,-1.557868 -0.67733,-1.083735 -0.67733,-2.77707 0,-2.540002 1.65947,-3.99627 1.69333,-1.490135 4.572,-1.490135 1.35467,0 2.57387,0.270934 2.4384,0.541867 2.4384,1.862668 0,0.440267 -0.508,1.490135 -0.508,1.016001 -0.94826,1.016001 -0.0339,0 -1.01601,-0.338667 -0.94826,-0.372534 -1.86266,-0.372534 -1.82881,0 -1.82881,1.219201 0,0.677334 0.67734,1.117601 0.7112,0.406401 1.69333,0.778934 1.016,0.338667 1.99814,0.880535 1.016,0.508 1.69333,1.659468 0.7112,1.117601 0.7112,2.777069 0,2.675469 -1.76106,4.301071 -1.72721,1.591735 -4.36881,1.591735 -2.60773,0 -4.3688,-0.609601 -1.76107,-0.643467 -1.76107,-1.794935 z" />
        <path
           id="path911"
           style="fill:#378068;fill-opacity:1"
           d="m 268.90952,35.535893 q -2.032,0 -2.032,-1.083734 v -2.743203 q 0,-1.083734 2.032,-1.083734 h 0.94827 q 2.032,0 2.032,1.083734 v 2.743203 q 0,1.083734 -2.032,1.083734 z m -2.032,19.608819 V 39.46443 q 0,-1.083734 2.032,-1.083734 h 0.94827 q 2.032,0 2.032,1.083734 v 15.680282 q 0,1.083735 -2.032,1.083735 h -0.94827 q -2.032,0 -2.032,-1.083735 z" />
        <path
           id="path913"
           style="fill:#378068;fill-opacity:1"
           d="M 275.97497,55.144712 V 44.408969 q 0,-2.540003 -0.2032,-3.556004 -0.2032,-1.016001 -0.2032,-1.219201 0,-0.541867 1.35467,-0.812801 1.38853,-0.270933 2.06586,-0.270933 0.67734,0 0.88054,0.135466 0.23707,0.135467 0.37253,0.440267 0.13547,0.270934 0.2032,0.474134 0.0677,0.169334 0.13547,0.609601 0.1016,0.440267 0.13547,0.541867 0.8128,-1.083734 2.16746,-1.828802 1.35467,-0.745067 2.87867,-0.745067 2.54001,0 3.75921,1.354668 1.2192,1.320801 1.2192,4.131737 v 11.480811 q 0,1.083735 -2.032,1.083735 h -0.94827 q -2.032,0 -2.032,-1.083735 V 44.408969 q 0,-2.099736 -2.032,-2.099736 -1.69334,0 -2.70934,1.964269 v 10.87121 q 0,1.083735 -2.032,1.083735 h -0.94827 q -2.032,0 -2.032,-1.083735 z" />
        <path
           id="path915"
           style="fill:#378068;fill-opacity:1"
           d="m 293.53963,58.666849 q 0,-2.743203 3.08187,-3.928537 l 0.0339,-0.135467 q -1.45627,-0.745067 -1.45627,-2.506136 0,-1.761068 2.03201,-2.844802 -2.74321,-1.524002 -2.74321,-4.809072 0,-3.318936 1.99814,-4.775204 2.032,-1.490135 5.2832,-1.490135 1.32081,0 2.60774,0.270934 h 5.45254 q 1.016,0 1.016,1.693334 v 0.575734 q 0,1.591735 -0.84667,1.591735 -0.8128,0 -1.4224,-0.135467 l -0.0677,0.135467 q 0.54186,0.711201 0.54186,1.896535 0,3.014137 -1.9304,4.504271 -1.89653,1.490135 -4.9784,1.490135 -2.06587,0 -2.06587,0.914401 0,0.982134 2.67547,1.219201 2.67547,0.237067 4.94454,1.117601 1.1176,0.440267 1.86267,1.524002 0.77893,1.049867 0.77893,2.607736 0,2.607735 -2.40454,4.165604 -2.40453,1.591734 -6.33307,1.591734 -8.06027,0 -8.06027,-4.673604 z m 6.4008,-12.666146 q 0.7112,0.575734 1.8288,0.575734 1.11761,0 1.82881,-0.575734 0.7112,-0.6096 0.7112,-1.794935 0,-1.219201 -0.7112,-1.794935 -0.7112,-0.6096 -1.82881,-0.6096 -1.1176,0 -1.8288,0.6096 -0.7112,0.575734 -0.7112,1.794935 0,1.185335 0.7112,1.794935 z m -1.524,11.853345 q 0,1.524002 3.52214,1.524002 3.52213,0 3.52213,-1.659469 0,-0.778934 -1.15146,-1.151467 -1.1176,-0.338667 -4.06401,-0.541868 -1.8288,0.643468 -1.8288,1.828802 z" />
        <path
           id="path917"
           style="fill:#2b424b;fill-opacity:1"
           d="m 311.99274,55.144712 v -3.115736 q 0,-1.083734 2.032,-1.083734 h 1.08373 q 2.032,0 2.032,1.083734 v 3.115736 q 0,1.083735 -2.032,1.083735 h -1.08373 q -2.032,0 -2.032,-1.083735 z" />
        <path
           id="path919"
           style="fill:#2b424b;fill-opacity:1"
           d="M 320.1636,55.144712 V 31.708956 q 0,-1.083734 2.032,-1.083734 h 0.94827 q 2.032,0 2.032,1.083734 v 7.518408 q 1.45627,-1.049868 3.4544,-1.049868 3.38667,0 5.24934,2.472269 1.89653,2.438402 1.89653,6.705606 0,4.233338 -1.76106,6.67174 -1.76107,2.404536 -4.57201,2.404536 -1.524,0 -2.7432,-0.711201 -1.18534,-0.711201 -1.79494,-1.828802 l -0.33866,1.456268 q -0.2032,0.880535 -1.96427,0.880535 h -0.4064 q -2.032,0 -2.032,-1.083735 z m 7.78934,-2.810936 q 2.7432,0 2.7432,-5.080005 0,-5.113871 -3.1496,-5.113871 -1.2192,0 -2.37067,0.643467 v 7.552274 q 1.15147,1.998135 2.77707,1.998135 z" />
        <path
           id="path921"
           style="fill:#2b424b;fill-opacity:1"
           d="m 347.43848,56.431647 q -4.47041,0 -6.67174,-2.370669 -2.16747,-2.404536 -2.16747,-6.908807 0,-4.504271 2.16747,-6.739473 2.20133,-2.235202 5.9944,-2.235202 3.82694,0 5.58801,2.438402 1.79493,2.438403 1.79493,6.299206 0,0.406401 -0.7112,1.219201 -0.67733,0.778935 -1.016,0.778935 h -8.63601 q 0.16934,1.930401 1.15147,2.743202 0.98214,0.812801 2.50614,0.812801 1.524,0 2.91253,-0.508001 1.38854,-0.541867 1.42241,-0.541867 0.508,0 1.1176,1.016001 0.64346,0.982135 0.64346,1.557868 0,1.117602 -2.1336,1.794936 -2.09973,0.643467 -3.9624,0.643467 z m 1.8288,-10.871211 q 0,-1.557868 -0.6096,-2.472269 -0.6096,-0.948267 -1.8288,-0.948267 -2.50614,0 -3.04801,3.420536 z" />
      </g>
    </g>
  </g>
</svg>
